# Blender v2.74 (sub 0) OBJ File: 'action.board.1_7.blend'
# www.blender.org
o Box001
v -8.000000 -0.000000 2.000000
v -8.000000 0.000000 -2.000000
v 8.000000 0.000000 -2.000000
v 8.000000 -0.000000 2.000000
v -8.000000 0.500000 2.000000
v 8.000000 0.500000 2.000000
v 8.000000 0.500000 -2.000000
v -8.000000 0.500000 -2.000000
vt 0.528759 0.112292
vt 0.528759 0.124267
vt 0.524951 0.124267
vt 0.524951 0.112292
vt 0.000000 0.000000
vt 1.000000 0.000000
vt 1.000000 1.000000
vt 0.000000 1.000000
vt 0.451138 0.486426
vt 0.447562 0.486426
vt 0.447562 0.482850
vt 0.451138 0.482850
vt 0.585117 0.914919
vt 0.582104 0.914919
vt 0.582104 0.908736
vt 0.585117 0.908736
vt 0.589784 0.355596
vt 0.587414 0.355596
vt 0.587414 0.350422
vt 0.589784 0.350422
vt 0.566523 0.502313
vt 0.570356 0.502313
vt 0.570356 0.511343
vt 0.566523 0.511343
vn 0.000000 -1.000000 -0.000000
vn 0.000000 1.000000 0.000000
vn 0.000000 0.000000 1.000000
vn 1.000000 0.000000 0.000000
vn 0.000000 0.000000 -1.000000
vn -1.000000 0.000000 0.000000
s 1
f 1/1/1 2/2/1 3/3/1 4/4/1
f 5/5/2 6/6/2 7/7/2 8/8/2
f 1/9/3 4/10/3 6/11/3 5/12/3
f 4/13/4 3/14/4 7/15/4 6/16/4
f 3/17/5 2/18/5 8/19/5 7/20/5
f 2/21/6 1/22/6 5/23/6 8/24/6
