# Blender v2.74 (sub 0) OBJ File: 'first.player.token.blend'
# www.blender.org
o Cylinder
v 0.000000 -0.239094 -1.000000
v 0.000000 0.239094 -1.000000
v 0.195090 -0.239094 -0.980785
v 0.195090 0.239094 -0.980785
v 0.382683 -0.239094 -0.923880
v 0.382683 0.239094 -0.923880
v 0.555570 -0.239094 -0.831470
v 0.555570 0.239094 -0.831470
v 0.707107 -0.239094 -0.707107
v 0.707107 0.239094 -0.707107
v 0.831470 -0.239094 -0.555570
v 0.831470 0.239094 -0.555570
v 0.923880 -0.239094 -0.382683
v 0.923880 0.239094 -0.382683
v 0.980785 -0.239094 -0.195090
v 0.980785 0.239094 -0.195090
v 1.000000 -0.239094 -0.000000
v 1.000000 0.239094 -0.000000
v 0.980785 -0.239094 0.195090
v 0.980785 0.239094 0.195090
v 0.923880 -0.239094 0.382683
v 0.923880 0.239094 0.382683
v 0.831470 -0.239094 0.555570
v 0.831470 0.239094 0.555570
v 0.707107 -0.239094 0.707107
v 0.707107 0.239094 0.707107
v 0.555570 -0.239094 0.831470
v 0.555570 0.239094 0.831470
v 0.382683 -0.239094 0.923880
v 0.382683 0.239094 0.923880
v 0.195090 -0.239094 0.980785
v 0.195090 0.239094 0.980785
v -0.000000 -0.239094 1.000000
v -0.000000 0.239094 1.000000
v -0.195091 -0.239094 0.980785
v -0.195091 0.239094 0.980785
v -0.382684 -0.239094 0.923879
v -0.382684 0.239094 0.923879
v -0.555571 -0.239094 0.831469
v -0.555571 0.239094 0.831469
v -0.707107 -0.239094 0.707106
v -0.707107 0.239094 0.707106
v -0.831470 -0.239094 0.555570
v -0.831470 0.239094 0.555570
v -0.923880 -0.239094 0.382683
v -0.923880 0.239094 0.382683
v -0.980785 -0.239094 0.195089
v -0.980785 0.239094 0.195089
v -1.000000 -0.239094 -0.000001
v -1.000000 0.239094 -0.000001
v -0.980785 -0.239094 -0.195091
v -0.980785 0.239094 -0.195091
v -0.923879 -0.239094 -0.382684
v -0.923879 0.239094 -0.382684
v -0.831469 -0.239094 -0.555571
v -0.831469 0.239094 -0.555571
v -0.707106 -0.239094 -0.707108
v -0.707106 0.239094 -0.707108
v -0.555569 -0.239094 -0.831470
v -0.555569 0.239094 -0.831470
v -0.382682 -0.239094 -0.923880
v -0.382682 0.239094 -0.923880
v -0.195089 -0.239094 -0.980786
v -0.195089 0.239094 -0.980786
vt 0.976178 0.500903
vt 0.976178 0.536399
vt 0.940681 0.536399
vt 0.112718 0.526395
vt 0.899096 0.526395
vt 0.505907 0.133206
vt 0.503920 0.916357
vt 0.899037 0.521241
vt 0.503920 0.126124
vt 0.940681 0.500903
vt 0.355441 0.889654
vt 0.429200 0.912029
vt 0.505907 0.919584
vt 0.287464 0.853320
vt 0.178983 0.744839
vt 0.227881 0.804422
vt 0.120273 0.603103
vt 0.142648 0.676862
vt 0.142648 0.375928
vt 0.120273 0.449688
vt 0.227880 0.248368
vt 0.178982 0.307951
vt 0.355440 0.163136
vt 0.287463 0.199470
vt 0.429200 0.140761
vt 0.656374 0.163135
vt 0.582614 0.140761
vt 0.783934 0.248368
vt 0.724351 0.199470
vt 0.869167 0.375928
vt 0.832832 0.307951
vt 0.891541 0.449687
vt 0.869167 0.676862
vt 0.891541 0.603102
vt 0.832832 0.744839
vt 0.656374 0.889654
vt 0.724351 0.853319
vt 0.783934 0.804421
vt 0.582615 0.912029
vt 0.224531 0.800631
vt 0.426838 0.908765
vt 0.284406 0.849768
vt 0.352716 0.886281
vt 0.138880 0.672446
vt 0.175393 0.740756
vt 0.108804 0.521241
vt 0.116396 0.598324
vt 0.224531 0.241851
vt 0.116396 0.444158
vt 0.175393 0.301726
vt 0.138880 0.370036
vt 0.352716 0.156201
vt 0.284405 0.192713
vt 0.426837 0.133716
vt 0.783310 0.241851
vt 0.581004 0.133716
vt 0.723435 0.192713
vt 0.655125 0.156201
vt 0.868961 0.370036
vt 0.832448 0.301726
vt 0.891445 0.444157
vt 0.868961 0.672445
vt 0.891445 0.598324
vt 0.783310 0.800630
vt 0.832448 0.740755
vt 0.655125 0.886281
vt 0.723435 0.849768
vt 0.581004 0.908765
vn 0.098000 0.000000 -0.995200
vn 0.290300 0.000000 -0.956900
vn 0.471400 0.000000 -0.881900
vn 0.634400 0.000000 -0.773000
vn 0.773000 0.000000 -0.634400
vn 0.881900 0.000000 -0.471400
vn 0.956900 0.000000 -0.290300
vn 0.995200 0.000000 -0.098000
vn 0.995200 0.000000 0.098000
vn 0.956900 0.000000 0.290300
vn 0.881900 0.000000 0.471400
vn 0.773000 0.000000 0.634400
vn 0.634400 0.000000 0.773000
vn 0.471400 0.000000 0.881900
vn 0.290300 0.000000 0.956900
vn 0.098000 0.000000 0.995200
vn -0.098000 0.000000 0.995200
vn -0.290300 0.000000 0.956900
vn -0.471400 0.000000 0.881900
vn -0.634400 0.000000 0.773000
vn -0.773000 0.000000 0.634400
vn -0.881900 0.000000 0.471400
vn -0.956900 0.000000 0.290300
vn -0.995200 0.000000 0.098000
vn -0.995200 0.000000 -0.098000
vn -0.956900 0.000000 -0.290300
vn -0.881900 0.000000 -0.471400
vn -0.773000 0.000000 -0.634400
vn -0.634400 0.000000 -0.773000
vn -0.471400 0.000000 -0.881900
vn 0.000000 1.000000 0.000000
vn -0.098000 0.000000 -0.995200
vn -0.290300 0.000000 -0.956900
vn 0.000000 -1.000000 -0.000000
s off
f 2/1/1 4/2/1 3/3/1
f 4/1/2 6/2/2 5/3/2
f 6/1/3 8/2/3 7/3/3
f 8/1/4 10/2/4 9/3/4
f 10/1/5 12/2/5 11/3/5
f 12/1/6 14/2/6 13/3/6
f 14/1/7 16/2/7 15/3/7
f 16/1/8 18/2/8 17/3/8
f 18/1/9 20/2/9 19/3/9
f 20/1/10 22/2/10 21/3/10
f 22/1/11 24/2/11 23/3/11
f 24/1/12 26/2/12 25/3/12
f 26/1/13 28/2/13 27/3/13
f 28/1/14 30/2/14 29/3/14
f 30/1/15 32/2/15 31/3/15
f 32/1/16 34/2/16 33/3/16
f 34/1/17 36/2/17 35/3/17
f 36/1/18 38/2/18 37/3/18
f 38/1/19 40/2/19 39/3/19
f 40/1/20 42/2/20 41/3/20
f 42/1/21 44/2/21 43/3/21
f 44/1/22 46/2/22 45/3/22
f 46/1/23 48/2/23 47/3/23
f 48/1/24 50/2/24 49/3/24
f 50/1/25 52/2/25 51/3/25
f 52/1/26 54/2/26 53/3/26
f 54/1/27 56/2/27 55/3/27
f 56/1/28 58/2/28 57/3/28
f 58/1/29 60/2/29 59/3/29
f 60/1/30 62/2/30 61/3/30
f 20/4/31 52/5/31 36/6/31
f 64/1/32 2/2/32 1/3/32
f 62/1/33 64/2/33 63/3/33
f 1/7/34 17/8/34 33/9/34
f 1/10/1 2/1/1 3/3/1
f 3/10/2 4/1/2 5/3/2
f 5/10/3 6/1/3 7/3/3
f 7/10/4 8/1/4 9/3/4
f 9/10/5 10/1/5 11/3/5
f 11/10/6 12/1/6 13/3/6
f 13/10/7 14/1/7 15/3/7
f 15/10/8 16/1/8 17/3/8
f 17/10/9 18/1/9 19/3/9
f 19/10/10 20/1/10 21/3/10
f 21/10/11 22/1/11 23/3/11
f 23/10/12 24/1/12 25/3/12
f 25/10/13 26/1/13 27/3/13
f 27/10/14 28/1/14 29/3/14
f 29/10/15 30/1/15 31/3/15
f 31/10/16 32/1/16 33/3/16
f 33/10/17 34/1/17 35/3/17
f 35/10/18 36/1/18 37/3/18
f 37/10/19 38/1/19 39/3/19
f 39/10/20 40/1/20 41/3/20
f 41/10/21 42/1/21 43/3/21
f 43/10/22 44/1/22 45/3/22
f 45/10/23 46/1/23 47/3/23
f 47/10/24 48/1/24 49/3/24
f 49/10/25 50/1/25 51/3/25
f 51/10/26 52/1/26 53/3/26
f 53/10/27 54/1/27 55/3/27
f 55/10/28 56/1/28 57/3/28
f 57/10/29 58/1/29 59/3/29
f 59/10/30 60/1/30 61/3/30
f 8/11/31 6/12/31 4/13/31
f 4/13/31 10/14/31 8/11/31
f 20/4/31 14/15/31 12/16/31
f 20/4/31 18/17/31 16/18/31
f 24/19/31 22/20/31 20/4/31
f 28/21/31 26/22/31 24/19/31
f 32/23/31 30/24/31 28/21/31
f 36/6/31 34/25/31 32/23/31
f 40/26/31 38/27/31 36/6/31
f 44/28/31 42/29/31 40/26/31
f 48/30/31 46/31/31 44/28/31
f 52/5/31 50/32/31 48/30/31
f 56/33/31 54/34/31 52/5/31
f 52/5/31 58/35/31 56/33/31
f 64/36/31 62/37/31 60/38/31
f 4/13/31 2/39/31 64/36/31
f 12/16/31 10/14/31 4/13/31
f 20/4/31 16/18/31 14/15/31
f 36/6/31 24/19/31 20/4/31
f 36/6/31 32/23/31 28/21/31
f 52/5/31 40/26/31 36/6/31
f 52/5/31 48/30/31 44/28/31
f 60/38/31 58/35/31 52/5/31
f 4/13/31 64/36/31 60/38/31
f 20/4/31 12/16/31 4/13/31
f 36/6/31 28/21/31 24/19/31
f 52/5/31 44/28/31 40/26/31
f 4/13/31 60/38/31 52/5/31
f 52/5/31 20/4/31 4/13/31
f 63/10/32 64/1/32 1/3/32
f 61/10/33 62/1/33 63/3/33
f 57/40/34 63/41/34 1/7/34
f 57/40/34 59/42/34 61/43/34
f 53/44/34 55/45/34 57/40/34
f 49/46/34 51/47/34 53/44/34
f 41/48/34 47/49/34 49/46/34
f 41/48/34 43/50/34 45/51/34
f 37/52/34 39/53/34 41/48/34
f 33/9/34 35/54/34 37/52/34
f 25/55/34 31/56/34 33/9/34
f 25/55/34 27/57/34 29/58/34
f 21/59/34 23/60/34 25/55/34
f 17/8/34 19/61/34 21/59/34
f 13/62/34 15/63/34 17/8/34
f 9/64/34 11/65/34 13/62/34
f 5/66/34 7/67/34 9/64/34
f 1/7/34 3/68/34 5/66/34
f 57/40/34 61/43/34 63/41/34
f 49/46/34 53/44/34 57/40/34
f 41/48/34 45/51/34 47/49/34
f 49/46/34 37/52/34 41/48/34
f 25/55/34 29/58/34 31/56/34
f 33/9/34 21/59/34 25/55/34
f 1/7/34 13/62/34 17/8/34
f 1/7/34 5/66/34 9/64/34
f 33/9/34 57/40/34 1/7/34
f 33/9/34 37/52/34 49/46/34
f 17/8/34 21/59/34 33/9/34
f 1/7/34 9/64/34 13/62/34
f 33/9/34 49/46/34 57/40/34
