# Blender v2.74 (sub 0) OBJ File: 'turns.combat.board.blend'
# www.blender.org
o Plane
v -4.999944 0.000000 1.732677
v 5.000056 0.000000 1.732677
v -4.999944 0.000000 -1.732626
v 5.000056 0.000000 -1.732626
v -4.999944 -0.200000 1.732677
v 5.000056 -0.200000 1.732677
v -4.999944 -0.200000 -1.732626
v 5.000056 -0.200000 -1.732626
vt 0.000000 0.498780
vt 0.999157 0.498780
vt 0.999157 1.000000
vt 0.000000 1.000000
vt 0.000000 0.000000
vt 0.999157 0.000000
vt 0.999368 0.181818
vt 0.999368 0.164430
vt 0.999578 0.164430
vt 0.999578 0.181818
vt 0.999578 0.700427
vt 0.999578 0.686394
vt 0.999789 0.686394
vt 0.999789 0.700427
vt 0.999789 0.005796
vt 0.999789 0.019219
vt 0.999368 0.019219
vt 0.999368 0.005796
vt 0.999368 0.518609
vt 0.999368 0.481391
vt 0.999578 0.481391
vt 0.999578 0.518609
vn 0.000000 1.000000 0.000000
vn 0.000000 -1.000000 0.000000
vn -1.000000 0.000000 0.000000
vn 0.000000 0.000000 1.000000
vn 1.000000 0.000000 0.000000
vn 0.000000 0.000000 -1.000000
s off
f 1/1/1 2/2/1 4/3/1 3/4/1
f 7/5/2 8/6/2 6/2/2 5/1/2
f 1/7/3 3/8/3 7/9/3 5/10/3
f 2/11/4 1/12/4 5/13/4 6/14/4
f 4/15/5 2/16/5 6/17/5 8/18/5
f 3/19/6 4/20/6 8/21/6 7/22/6
